# xmcd
# 
# Track frame offsets:
#     150
#     15447
#     26332
#     38212
#     54347
#     66805
#     79827
#     96055
#     108695
#     124152
#     138205
#     151570
#     167490
# 
# Disc length: 2422
# 
# Revision: 1
# Processed by: cddbd v1.5.2PL0 Copyright (c) Steve Scherf et al.
# Submitted via: BonkEnc v1.0rc1
# 
DISCID=9409740d
DTITLE=Blue Highway - Wondrous Love
DYEAR=2003
DGENRE=Bluegrass
TTITLE0=Wondrous Love
TTITLE1=Traveling Preacher
TTITLE2=Wicked Path Of Sin
TTITLE3=I'm Asking You
TTITLE4=Live On Down The Line
TTITLE5=Chasing After The Wind
TTITLE6=Seven Sundays In A Row
TTITLE7=This World Is Not My Home
TTITLE8=Ahead Of The Storm
TTITLE9=Old Brush Arbors
TTITLE10=The Ground Is Level At The Foot Of The Cross
TTITLE11=It Won't Be Long
TTITLE12=The Old Rugged Cross
EXTD=
EXTT0=
EXTT1=
EXTT2=
EXTT3=
EXTT4=
EXTT5=
EXTT6=
EXTT7=
EXTT8=
EXTT9=
EXTT10=
EXTT11=
EXTT12=
PLAYORDER=
